<?xml version="1.0" encoding="UTF-8"?>
<svg width="32px" height="32px" viewBox="0 0 32 32" version="1.1" xmlns="http://www.w3.org/2000/svg" xmlns:xlink="http://www.w3.org/1999/xlink">
    <!-- Generator: Sketch 60 (88103) - https://sketch.com -->
    <title></title>
    <desc>Created with Sketch.</desc>
    <g id="UI-360---02" stroke="none" stroke-width="1" fill="none" fill-rule="evenodd">
        <g id="Francesco-Strazzullo---Scheda-workshop-360" transform="translate(-24.000000, -561.000000)" fill="#FFFFFF" fill-rule="nonzero">
            <g id="BODY" transform="translate(0.000000, 140.000000)">
                <g id="cta" transform="translate(0.000000, 417.000000)">
                    <path d="M48.015625,30.015625 C48.578125,29.984375 49.046875,29.78125 49.421875,29.40625 C49.796875,29.03125 49.984375,28.5625 49.984375,28 L49.984375,28 L49.984375,18.015625 C49.953125,17.234375 49.640625,16.65625 49.046875,16.28125 L49.046875,16.28125 L40,10.65625 L30.953125,16.28125 C30.359375,16.65625 30.046875,17.234375 30.015625,18.015625 L30.015625,18.015625 L30.015625,28 C30.015625,28.5625 30.203125,29.03125 30.578125,29.40625 C30.953125,29.78125 31.421875,29.984375 31.984375,30.015625 L31.984375,30.015625 L48.015625,30.015625 Z M40,22.984375 L31.984375,18.015625 L40,13 L48.015625,18.015625 L40,22.984375 Z" id=""></path>
                </g>
            </g>
        </g>
    </g>
</svg>