<?xml version="1.0" encoding="UTF-8"?>
<svg width="36px" height="40px" viewBox="0 0 36 40" version="1.1" xmlns="http://www.w3.org/2000/svg" xmlns:xlink="http://www.w3.org/1999/xlink">
    <!-- Generator: Sketch 60 (88103) - https://sketch.com -->
    <title></title>
    <desc>Created with Sketch.</desc>
    <g id="UI-360---02" stroke="none" stroke-width="1" fill="none" fill-rule="evenodd">
        <g id="Francesco-Strazzullo---Close-menu-360x640" transform="translate(-86.000000, -100.000000)">
            <g id="SOCIAL" transform="translate(-12.000000, 100.000000)">
                <g id="ico" transform="translate(98.000000, 0.000000)">
                    <rect id="Rectangle" x="0" y="0" width="36" height="40"></rect>
                    <path d="M27,24.9368421 L26.2881,24.9368421 C26.0238,24.9368421 25.65,24.5622611 25.65,24.3224484 L25.65,15.6305263 C25.65,15.3904189 26.0238,15.0631579 26.2881,15.0631579 L27,15.0631579 L27,13 L20.55,13 L20.55,15.0631579 L21.9,15.0631579 L21.9,24.2 L21.83385,24.2 L18.68133,13 L16.240605,13 L13.12875,24.2 L13.05,24.2 L13.05,15.0631579 L14.4,15.0631579 L14.4,13 L9,13 L9,15.0631579 L9.6914655,15.0631579 C9.97623,15.0631579 10.35,15.3904189 10.35,15.6305263 L10.35,24.3224484 C10.35,24.5622611 9.97623,24.9368421 9.6914655,24.9368421 L9,24.9368421 L9,27 L15.75246,27 L17.969415,18.8947368 L18.030405,18.8947368 L20.267865,27 L27,27 L27,24.9368421" id="Medium" fill="#FFFFFF" fill-rule="nonzero" transform="translate(18.000000, 20.000000) scale(1, -1) translate(-18.000000, -20.000000) "></path>
                </g>
            </g>
        </g>
    </g>
</svg>